<?xml version="1.0" encoding="utf-8"?>
<svg version="1.1" id="svg10" viewBox="0 0 250 250" xmlns="http://www.w3.org/2000/svg">
  <g id="g3155" transform="matrix(0.503375, 0, 0, 0.693895, -330.848663, -222.595428)">
    <g transform="matrix(0.32457484,-0.24969801,0.19350002,0.41994439,482.60365,661.66486)" id="g3114">
      <path style="opacity:1;fill:#d9a3bc;fill-opacity:1;fill-rule:evenodd;stroke:none;stroke-width:0.84200001;stroke-linecap:butt;stroke-linejoin:round;stroke-miterlimit:4;stroke-dasharray:none;stroke-dashoffset:0;stroke-opacity:1;paint-order:fill markers stroke" d="m 1317.5506,521.40491 h 185.9014 c 3.8382,0 6.9281,3.08994 6.9281,6.92811 v 125.79735 c 0,3.83818 -3.0899,6.92812 -6.9281,6.92812 h -185.9014 c -3.8382,0 -6.9282,-3.08994 -6.9282,-6.92812 V 528.33302 c 0,-3.83817 3.09,-6.92811 6.9282,-6.92811 z" id="rect3075"/>
      <path style="fill:#312559;fill-opacity:1;stroke:#312559;stroke-width:1px;stroke-linecap:butt;stroke-linejoin:miter;stroke-opacity:1" d="m 1318.5975,521.8971 184.0326,-0.24219 -87.3559,79.29954 z" id="path3077"/>
      <path style="opacity:0.19299999;fill:#f2ca7e;fill-opacity:1;stroke:none;stroke-width:1px;stroke-linecap:butt;stroke-linejoin:miter;stroke-opacity:1" d="m 1317.2515,661.05847 98.0227,-60.10402 87.8581,59.92724 z" id="path3079"/>
    </g>
    <path id="rect6638" d="m 897.03721,378.83195 130.77309,29.80854 -67.32941,254.8363 -243.33995,-64.29204 z" style="opacity:1;fill:#928fd9;fill-opacity:1;stroke:none;stroke-width:0.198;stroke-linecap:square;stroke-linejoin:bevel;stroke-miterlimit:4;stroke-dasharray:none;stroke-opacity:1"/>
    <path id="path6909" d="m 1113.0424,540.63924 c -6.7066,13.95085 -11.4521,-130.40311 -93.5414,-130.4031 -82.08923,0 -148.63583,-16.14862 -148.63573,-36.06895 0,-19.92033 68.9516,-55.79399 148.63573,-36.06894 84.8637,21.0072 138.867,108.25594 93.5414,202.54099 z" style="opacity:1;fill:#f2ca7e;fill-opacity:1;stroke:none;stroke-width:0.21759555;stroke-linecap:square;stroke-linejoin:bevel;stroke-miterlimit:4;stroke-dasharray:none;stroke-opacity:1;paint-order:fill markers stroke"/>
    <path id="path3770" d="m 849.93314,457.95277 c 14.20585,-21.77469 32.28712,-6.99468 29.47258,-18.79171" style="opacity:1;fill:none;stroke:#312559;stroke-width:1.22249317px;stroke-linecap:butt;stroke-linejoin:miter;stroke-opacity:1"/>
    <ellipse ry="46.282791" rx="52.609219" cy="412.55786" cx="863.5127" id="path6650-6" style="opacity:1;fill:#f2ca7e;fill-opacity:1;stroke:none;stroke-width:0.33266559;stroke-linecap:square;stroke-linejoin:bevel;stroke-miterlimit:4;stroke-dasharray:none;stroke-opacity:1"/>
    <path id="path6650" d="m 918.42472,415.46634 a 54.202122,47.684143 0 0 1 -54.20212,47.68414 54.202122,47.684143 0 0 1 -54.20213,-47.68414 54.202122,47.684143 0 0 1 54.20213,-47.68414 54.202122,47.684143 0 0 1 54.20212,47.68414 z" style="opacity:1;fill:#928fd9;fill-opacity:1;stroke:none;stroke-width:0.34273806;stroke-linecap:square;stroke-linejoin:bevel;stroke-miterlimit:4;stroke-dasharray:none;stroke-opacity:1"/>
    <g transform="matrix(1.332249,0,0,1.332249,-280.43371,-134.59506)" id="g3127">
      <path style="fill:#312559;fill-opacity:1;stroke:none;stroke-width:1px;stroke-linecap:butt;stroke-linejoin:miter;stroke-opacity:1" d="m 841.50026,405.69001 c 0.77479,-0.19573 1.65604,-0.27661 2.55273,-0.34179 -0.0506,-0.16541 -0.0949,-0.33216 -0.13281,-0.5 -0.0525,-0.26128 -0.0897,-0.52463 -0.11133,-0.78907 -0.0156,-0.18721 -0.0234,-0.37482 -0.0234,-0.5625 -5.9e-4,-0.26545 0.0144,-0.53075 0.0449,-0.79492 0.0315,-0.26355 0.0785,-0.52559 0.14063,-0.78515 0.0617,-0.26028 0.1386,-0.51777 0.23047,-0.77149 0.0921,-0.25309 0.19904,-0.5021 0.32031,-0.74609 0.12067,-0.24453 0.2556,-0.48377 0.4043,-0.7168 0.14941,-0.23271 0.31237,-0.45891 0.48828,-0.67773 0.17503,-0.2188 0.36276,-0.43 0.5625,-0.63282 0.20072,-0.20295 0.41322,-0.39721 0.63672,-0.58203 0.22266,-0.18496 0.45603,-0.36031 0.69922,-0.52539 0.24409,-0.16435 0.49766,-0.31819 0.75976,-0.46093 0.26161,-0.14358 0.53148,-0.27591 0.8086,-0.39649 0.2767,-0.12007 0.56025,-0.22827 0.8496,-0.32422 0.28981,-0.0965 0.5851,-0.18061 0.88477,-0.25195 0.2998,-0.0709 0.60356,-0.12887 0.91016,-0.17383 0.30653,-0.045 0.61551,-0.077 0.92578,-0.0957 0.21971,-0.0131 0.4399,-0.0197 0.66015,-0.0195 0.31047,-1.7e-4 0.62075,0.0129 0.92969,0.0391 0.30943,0.0266 0.61711,0.0663 0.92188,0.11914 0.3051,0.0528 0.60691,0.11868 0.90429,0.19727 0.29678,0.078 0.58881,0.16862 0.875,0.27148 0.28653,0.10322 0.56683,0.21859 0.83985,0.3457 0.27294,0.12728 0.53825,0.26613 0.79492,0.41602 0.25668,0.15014 0.50439,0.31115 0.74219,0.48242 0.23763,0.17055 0.46513,0.35111 0.68164,0.54102 0.21663,0.19034 0.42197,0.38981 0.61523,0.59765 0.19351,0.20764 0.37473,0.42341 0.54297,0.64649 0.16766,0.2231 0.32215,0.4532 0.46289,0.68945 0.14109,0.23661 0.2682,0.4791 0.38086,0.72656 0.11297,0.24695 0.2114,0.49857 0.29492,0.75391 0.0828,0.25542 0.1506,0.5142 0.20313,0.77539 0.0532,0.26189 0.091,0.52589 0.11328,0.79101 0.0156,0.18721 0.0234,0.37482 0.0234,0.5625 -0.002,0.24067 -0.0159,0.48115 -0.043,0.72071 2.3464,-0.93894 4.3722,-2.50888 5.73047,-5.25391 -1.3834,-1.58834 -3.4479,-7.95575 -7.6548,-9.35236 -9.59886,-2.45526 -19.05118,7.26069 -18.97015,16.07885 z" id="path3772-8"/>
      <path style="fill:#312559;fill-opacity:1;stroke:none;stroke-width:1px;stroke-linecap:butt;stroke-linejoin:miter;stroke-opacity:1" d="m 861.17969,406.11133 a 9.3262892,7.9547758 0 0 0 0.043,-0.72071 9.3262892,7.9547758 0 0 0 -0.0234,-0.5625 9.3262892,7.9547758 0 0 0 -0.11328,-0.79101 9.3262892,7.9547758 0 0 0 -0.20313,-0.77539 9.3262892,7.9547758 0 0 0 -0.29492,-0.75391 9.3262892,7.9547758 0 0 0 -0.38086,-0.72656 9.3262892,7.9547758 0 0 0 -0.46289,-0.68945 9.3262892,7.9547758 0 0 0 -0.54297,-0.64649 9.3262892,7.9547758 0 0 0 -0.61523,-0.59765 9.3262892,7.9547758 0 0 0 -0.68164,-0.54102 9.3262892,7.9547758 0 0 0 -0.74219,-0.48242 9.3262892,7.9547758 0 0 0 -0.79492,-0.41602 9.3262892,7.9547758 0 0 0 -0.83985,-0.3457 9.3262892,7.9547758 0 0 0 -0.875,-0.27148 9.3262892,7.9547758 0 0 0 -0.90429,-0.19727 9.3262892,7.9547758 0 0 0 -0.92188,-0.11914 9.3262892,7.9547758 0 0 0 -0.92969,-0.0391 9.3262892,7.9547758 0 0 0 -0.66015,0.0195 9.3262892,7.9547758 0 0 0 -0.92578,0.0957 9.3262892,7.9547758 0 0 0 -0.91016,0.17383 9.3262892,7.9547758 0 0 0 -0.88477,0.25195 9.3262892,7.9547758 0 0 0 -0.8496,0.32422 9.3262892,7.9547758 0 0 0 -0.8086,0.39649 9.3262892,7.9547758 0 0 0 -0.75976,0.46093 9.3262892,7.9547758 0 0 0 -0.69922,0.52539 9.3262892,7.9547758 0 0 0 -0.63672,0.58203 9.3262892,7.9547758 0 0 0 -0.5625,0.63282 9.3262892,7.9547758 0 0 0 -0.48828,0.67773 9.3262892,7.9547758 0 0 0 -0.4043,0.7168 9.3262892,7.9547758 0 0 0 -0.32031,0.74609 9.3262892,7.9547758 0 0 0 -0.23047,0.77149 9.3262892,7.9547758 0 0 0 -0.14063,0.78515 9.3262892,7.9547758 0 0 0 -0.0449,0.79492 9.3262892,7.9547758 0 0 0 0.0234,0.5625 9.3262892,7.9547758 0 0 0 0.11133,0.78907 9.3262892,7.9547758 0 0 0 0.13281,0.5 c 5.46953,-0.39762 12.82802,1.07554 18.3418,-1.13086 z" id="path7086"/>
      <path style="fill:#d9a3bc;fill-opacity:1;stroke:none;stroke-width:1px;stroke-linecap:butt;stroke-linejoin:miter;stroke-opacity:1" d="m 840.28516,407.58398 c 0.77479,-0.19573 1.65604,-0.27661 2.55273,-0.34179 -0.0506,-0.16541 -0.0949,-0.33216 -0.13281,-0.5 -0.0525,-0.26128 -0.0897,-0.52463 -0.11133,-0.78907 -0.0156,-0.18721 -0.0234,-0.37482 -0.0234,-0.5625 -5.9e-4,-0.26545 0.0144,-0.53075 0.0449,-0.79492 0.0315,-0.26355 0.0785,-0.52559 0.14063,-0.78515 0.0617,-0.26028 0.1386,-0.51777 0.23047,-0.77149 0.0921,-0.25309 0.19904,-0.5021 0.32031,-0.74609 0.12067,-0.24453 0.2556,-0.48377 0.4043,-0.7168 0.14941,-0.23271 0.31237,-0.45891 0.48828,-0.67773 0.17503,-0.2188 0.36276,-0.43 0.5625,-0.63282 0.20072,-0.20295 0.41322,-0.39721 0.63672,-0.58203 0.22266,-0.18496 0.45603,-0.36031 0.69922,-0.52539 0.24409,-0.16435 0.49766,-0.31819 0.75976,-0.46093 0.26161,-0.14358 0.53148,-0.27591 0.8086,-0.39649 0.2767,-0.12007 0.56025,-0.22827 0.8496,-0.32422 0.28981,-0.0965 0.5851,-0.18061 0.88477,-0.25195 0.2998,-0.0709 0.60356,-0.12887 0.91016,-0.17383 0.30653,-0.045 0.61551,-0.077 0.92578,-0.0957 0.21971,-0.0131 0.4399,-0.0197 0.66015,-0.0195 0.31047,-1.7e-4 0.62075,0.0129 0.92969,0.0391 0.30943,0.0266 0.61711,0.0663 0.92188,0.11914 0.3051,0.0528 0.60691,0.11868 0.90429,0.19727 0.29678,0.078 0.58881,0.16862 0.875,0.27148 0.28653,0.10322 0.56683,0.21859 0.83985,0.3457 0.27294,0.12728 0.53825,0.26613 0.79492,0.41602 0.25668,0.15014 0.50439,0.31115 0.74219,0.48242 0.23763,0.17055 0.46513,0.35111 0.68164,0.54102 0.21663,0.19034 0.42197,0.38981 0.61523,0.59765 0.19351,0.20764 0.37473,0.42341 0.54297,0.64649 0.16766,0.2231 0.32215,0.4532 0.46289,0.68945 0.14109,0.23661 0.2682,0.4791 0.38086,0.72656 0.11297,0.24695 0.2114,0.49857 0.29492,0.75391 0.0828,0.25542 0.1506,0.5142 0.20313,0.77539 0.0532,0.26189 0.091,0.52589 0.11328,0.79101 0.0156,0.18721 0.0234,0.37482 0.0234,0.5625 -0.002,0.24067 -0.0159,0.48115 -0.043,0.72071 2.3464,-0.93894 4.3722,-2.50888 5.73047,-5.25391 -1.3834,-1.58834 -3.4479,-7.95575 -7.6548,-9.35236 -9.59886,-2.45526 -19.05118,7.26069 -18.97015,16.07885 z" id="path3772"/>
    </g>
    <path id="path3774" d="m 920.94337,492.00551 c 40.39102,24.1083 34.43254,51.39282 46.69138,46.96272 6.25483,-2.26036 2.27315,-17.8907 22.28812,-43.44697 -33.81723,9.55601 -35.30228,5.37221 -68.9795,-3.51575 z" style="fill:#d9a3bc;fill-opacity:1;stroke:none;stroke-width:1px;stroke-linecap:butt;stroke-linejoin:miter;stroke-opacity:1"/>
    <ellipse transform="rotate(-46.981095)" ry="46.73838" rx="65.181099" cy="900.67743" cx="206.40804" id="path6653-7" style="opacity:1;fill:#f2ca7e;fill-opacity:1;stroke:none;stroke-width:0.25240916;stroke-linecap:square;stroke-linejoin:bevel;stroke-miterlimit:4;stroke-dasharray:none;stroke-opacity:1"/>
    <ellipse transform="rotate(-46.981095)" ry="46.73838" rx="65.181099" cy="902.25159" cx="206.39636" id="path6653" style="opacity:1;fill:#928fd9;fill-opacity:1;stroke:none;stroke-width:0.25240916;stroke-linecap:square;stroke-linejoin:bevel;stroke-miterlimit:4;stroke-dasharray:none;stroke-opacity:1"/>
    <path id="path6661" d="m 923.80452,506.09259 c 15.58425,10.26112 33.59013,61.98526 51.72108,45.06591 8.91921,-8.82031 22.56672,-48.18829 29.4438,-58.17689 2.6665,-16.47998 -14.68199,-17.53616 14.3463,-53.5334 22.4235,44.3574 -21.69611,102.22957 -22.21896,143.63987 -0.77045,17.08293 0.8602,34.14162 1.18771,51.21326 l -37.80356,29.17545 -53.02338,-14.14158 c 39.23029,-0.41324 -14.51923,-47.34828 65.40044,-76.20593 -1.63383,-8.25539 -8.62058,-11.51062 -15.70943,-14.30976 -13.42989,-9.26572 -15.06611,-26.995 -24.36824,-39.40902 -2.8743,-4.5174 -5.92874,-8.91631 -8.97576,-13.31791 z" style="fill:#f2ca7e;fill-opacity:1;stroke:none;stroke-width:1px;stroke-linecap:butt;stroke-linejoin:miter;stroke-opacity:1"/>
    <path id="rect6859-9" d="m 679.85726,499.11796 c 35.70367,-55.08942 67.31774,-39.29249 100.07492,-43.30921 46.07991,20.20804 44.26984,52.31048 47.42783,95.67673 -21.29199,40.13654 -71.90389,54.46585 -110.21907,47.69927 19.34377,-61.88093 -68.60933,-52.59223 -37.28368,-100.06679 z" style="opacity:1;fill:#f2ca7e;fill-opacity:1;stroke:none;stroke-width:0.198;stroke-linecap:square;stroke-linejoin:bevel;stroke-miterlimit:4;stroke-dasharray:none;stroke-opacity:1"/>
    <path id="rect6859-9-7" d="m 688.34409,498.69804 c 35.70367,-55.08942 67.31774,-39.29249 100.07492,-43.30921 46.07991,20.20804 44.26984,52.31048 47.42783,95.67673 -21.29199,40.13654 -118.7059,48.11919 -118.7059,48.11919 19.34377,-61.88093 -60.1225,-53.01215 -28.79685,-100.48671 z" style="opacity:1;fill:#928fd9;fill-opacity:1;stroke:#928fd9;stroke-width:0.198;stroke-linecap:square;stroke-linejoin:bevel;stroke-miterlimit:4;stroke-dasharray:none;stroke-opacity:1"/>
    <path id="path6909-8" d="m 1110.8002,544.28275 c -6.7066,13.95085 -12.5732,-130.12284 -94.6625,-130.12283 -82.08924,0 -148.63575,-16.14862 -148.63573,-36.06895 10e-6,-19.92033 68.95159,-55.79399 148.63573,-36.06894 84.8637,21.0072 139.9881,107.97567 94.6625,202.26072 z" style="opacity:1;fill:#928fd9;fill-opacity:1;stroke:none;stroke-width:0.21759555;stroke-linecap:square;stroke-linejoin:bevel;stroke-miterlimit:4;stroke-dasharray:none;stroke-opacity:1"/>
    <path id="path6931" d="m 1114.5899,535.9686 c -4.1566,15.96866 -15.3409,37.35295 -27.786,38.62804 -25.7382,2.73654 -30.7376,-40.32369 -14.4295,-43.28685 15.4863,-2.81383 9.6612,-69.38631 9.6612,-69.38631 11.6575,0.22584 36.714,58.06451 32.5543,74.04512 z" style="opacity:1;fill:#928fd9;fill-opacity:1;stroke:none;stroke-width:0.25336868;stroke-linecap:square;stroke-linejoin:bevel;stroke-miterlimit:4;stroke-dasharray:none;stroke-opacity:1"/>
    <path id="path3763-1" d="m 875.97524,465.91848 c 14.94231,-2.78719 41.07112,-8.08533 50.33435,-21.19813 52.80581,-53.98773 142.00271,-47.61197 155.72601,17.20313 -37.2741,-60.32729 -78.5572,-26.79342 -90.1889,16.71381 m 0,0 c -38.21576,10.06237 -78.75872,-6.16368 -115.87146,-12.71881" style="fill:#312559;fill-opacity:1;stroke:none;stroke-width:1px;stroke-linecap:butt;stroke-linejoin:miter;stroke-opacity:1"/>
    <path id="path3763" d="m 875.97524,465.91848 c 14.94231,-2.78719 42.12001,-2.89404 51.38324,-16.00684 52.80586,-53.98773 140.95382,-52.80326 154.67712,12.01184 -37.2741,-60.32729 -77.5083,-21.60213 -89.14001,21.9051 m 0,0 c -38.21573,10.06237 -79.80761,-11.35497 -116.92035,-17.9101" style="fill:#d9a3bc;fill-opacity:1;stroke:none;stroke-width:1px;stroke-linecap:butt;stroke-linejoin:miter;stroke-opacity:1"/>
    <path id="path6931-1" d="m 1126.0894,501.92565 c -2.5869,17.96367 -19.5135,72.19666 -40.2488,72.69257 -20.3032,2.29949 -16.4517,-21.00272 -5.3253,-18.15617 40.3886,-5.89552 53.3553,-69.72926 41.187,-119.41406 9.9956,1.28697 6.1487,52.64449 4.3871,64.87766 z" style="opacity:1;fill:#f2ca7e;fill-opacity:1;stroke:none;stroke-width:0.2019202;stroke-linecap:square;stroke-linejoin:bevel;stroke-miterlimit:4;stroke-dasharray:none;stroke-opacity:1"/>
  </g>
</svg>