<?xml version="1.0" encoding="utf-8"?>
<svg viewBox="0 0 150 150" xmlns="http://www.w3.org/2000/svg" xmlns:bx="https://boxy-svg.com">
  <path style="fill: rgb(182, 142, 186);" d="M 65.26 110.291 C 65.26 110.291 66.787 127.29 73.952 133.628 C 81.118 139.967 92.607 143.211 99.547 141.621 C 106.488 140.029 116.517 134.167 117.961 131.147 C 119.405 128.128 122.507 122.18 124.102 121.312 C 125.697 120.445 130.114 119.164 129.947 117.616 C 129.779 116.069 129.275 113.812 126.015 113.184 C 122.754 112.555 121.115 112.651 121.115 112.651 C 121.115 112.651 114.335 109.088 112.665 108.926 C 110.994 108.766 113.515 115.758 113.071 117.322 C 112.629 118.885 111.949 129.268 99.48 129.081 C 87.009 128.895 82.694 122.414 83.084 115.737 C 83.474 109.061 84.349 100.402 85.186 94.235 C 86.022 88.069 88.161 78.536 88.161 78.536 C 88.161 78.536 91.821 85.518 96.302 86.812 C 100.785 88.106 105.851 86.253 105.851 86.253 C 105.851 86.253 99.133 82.3 97.502 80.325 C 95.873 78.35 93.678 74.681 93.853 71.554 C 94.026 68.428 95.042 65.672 99.274 71.012 C 103.504 76.353 103.387 82.049 107.541 82.939 C 111.694 83.83 119.9 77.767 123.416 74.718 C 126.934 71.667 127.65 67.756 131.051 64.382 C 134.453 61.009 146.013 54.951 148.223 48.964 C 150.433 42.978 143.947 30.72 136.905 24.785 C 129.864 18.849 112.782 11.256 104.23 13.329 C 95.677 15.401 86.373 19.571 86.373 19.571 C 86.373 19.571 82.445 18.671 75.919 18.863 C 69.393 19.053 66.249 19.832 66.249 19.832 C 66.249 19.832 51.632 12.655 43.468 13.052 C 35.302 13.45 19.556 17.737 12.184 26.895 C 4.811 36.052 0.161 39.124 2.734 48.331 C 5.307 57.54 14.915 58.96 19.705 64.532 C 24.497 70.104 27.776 76.028 32.085 78.391 C 36.396 80.753 39.19 84.043 43.697 81.781 C 48.204 79.518 49.37 73.425 51.84 70.434 C 54.311 67.445 57.979 66.26 57.563 72.361 C 57.145 78.462 52.643 82.086 50.921 83.431 C 49.198 84.774 43.651 86.192 43.651 86.192 C 43.651 86.192 50.416 89.652 56.282 85.423 C 62.149 81.192 62.435 78.065 62.435 78.065 C 61.29 70.103 65.461 89.679 65.102 94.307 C 64.743 98.933 65.062 110.409 65.26 110.291 Z"/>
  <polygon style="fill: rgb(255, 255, 255);" points="45.159 25.642 45.159 56.948 106.735 56.948 106.735 26.327 75.961 45.33"/>
  <polygon style="fill: rgb(255, 255, 255);" points="50.048 27.237 102.21 27.237 75.86 43.508"/>
  <path d="M 791.41 396.141 m -14.448 0 a 14.448 14.448 0 1 0 28.896 0 a 14.448 14.448 0 1 0 -28.896 0 Z M 791.41 396.141 m -12.409 0 a 12.409 12.409 0 0 1 24.818 0 a 12.409 12.409 0 0 1 -24.818 0 Z" style="fill: rgb(255, 0, 0);" transform="matrix(-0.122152, 0.992511, -0.992511, -0.122152, 615.618972, -641.035336)" bx:shape="ring 791.41 396.141 12.409 12.409 14.448 14.448 1@741babba"/>
  <line style="fill: none; stroke: rgb(255, 0, 0); stroke-width: 2px;" x1="116.344" y1="105.207" x2="135.423" y2="86.762"/>
</svg>